<svg height="512" viewBox="0 0 64 64" width="512" xmlns="http://www.w3.org/2000/svg"><g id="Typewriter-2" data-name="Typewriter"><rect fill="#3d9ae2" height="20" rx="1" width="58" x="3" y="12"/><path d="m41 53h14v8h-14z" fill="#5aaae7"/><path d="m56 47v6h-1-14-1v-6h1 13z" fill="#3d9ae2"/><path d="m59 30v2h-20v-1a2.006 2.006 0 0 1 2-2 2.015 2.015 0 0 1 2 2v-5a2.006 2.006 0 0 1 2-2 2.015 2.015 0 0 1 2 2v-1a2 2 0 0 1 2-2 2.015 2.015 0 0 1 2 2v1a2.006 2.006 0 0 1 2-2 2.015 2.015 0 0 1 2 2v4a2.006 2.006 0 0 1 2-2 2.015 2.015 0 0 1 2 2z" fill="#1e81ce"/><path d="m24 47v6h-1-14-1v-6h2 13z" fill="#3d9ae2"/><path d="m9 53h14v8h-14z" fill="#5aaae7"/><path d="m29 31v1h-20v-2a2.015 2.015 0 0 1 2-2 2.006 2.006 0 0 1 2 2v-4a2.015 2.015 0 0 1 2-2 2.006 2.006 0 0 1 2 2v-1a2.015 2.015 0 0 1 2-2 2 2 0 0 1 2 2v1a2.015 2.015 0 0 1 2-2 2.006 2.006 0 0 1 2 2v5a2.015 2.015 0 0 1 2-2 2.006 2.006 0 0 1 2 2z" fill="#1e81ce"/><path d="m25 29a2.015 2.015 0 0 0 -2 2v-5a2.006 2.006 0 0 0 -2-2 2.015 2.015 0 0 0 -2 2v-1a2 2 0 0 0 -2-2 2.015 2.015 0 0 0 -2 2v1a2.006 2.006 0 0 0 -2-2 2.015 2.015 0 0 0 -2 2v4a2.006 2.006 0 0 0 -2-2 2.015 2.015 0 0 0 -2 2v10l3 5v2h13v-2l4-4v-10a2.006 2.006 0 0 0 -2-2z" fill="#ffc477"/><path d="m56.41 28.59a1.955 1.955 0 0 0 -1.41-.59 2.006 2.006 0 0 0 -2 2v-4a2.015 2.015 0 0 0 -2-2 2.006 2.006 0 0 0 -2 2v-1a2.015 2.015 0 0 0 -2-2 2 2 0 0 0 -2 2v1a2.015 2.015 0 0 0 -2-2 2.006 2.006 0 0 0 -2 2v5a2.015 2.015 0 0 0 -2-2 2.006 2.006 0 0 0 -2 2v10l4 4v2h13v-2l3-5v-10a1.955 1.955 0 0 0 -.59-1.41z" fill="#ffc477"/><g fill="#1e81ce"><path d="m23 27h18v2h-18z"/><path d="m25 23h2v2h-2z"/><path d="m29 23h2v2h-2z"/><path d="m33 23h2v2h-2z"/><path d="m37 23h2v2h-2z"/><path d="m17 19h2v2h-2z"/><path d="m13 19h2v2h-2z"/><path d="m21 19h2v2h-2z"/><path d="m25 19h2v2h-2z"/><path d="m29 19h2v2h-2z"/><path d="m33 19h2v2h-2z"/><path d="m37 19h2v2h-2z"/><path d="m41 19h2v2h-2z"/><path d="m45 19h2v2h-2z"/><path d="m49 19h2v2h-2z"/><path d="m17 15h2v2h-2z"/><path d="m13 15h2v2h-2z"/><path d="m9 19h2v2h-2z"/><path d="m9 15h2v2h-2z"/><path d="m21 15h2v2h-2z"/><path d="m25 15h2v2h-2z"/><path d="m29 15h2v2h-2z"/><path d="m33 15h2v2h-2z"/><path d="m37 15h2v2h-2z"/><path d="m41 15h2v2h-2z"/><path d="m45 15h2v2h-2z"/><path d="m49 15h2v2h-2z"/><path d="m53 19h2v2h-2z"/><path d="m53 15h2v2h-2z"/><path d="m50 56h2v2h-2z"/><path d="m12 56h2v2h-2z"/></g><rect fill="#ffb655" height="4" rx="1" width="2" x="10" y="30"/><rect fill="#ffb655" height="8" rx="1" width="2" x="14" y="26"/><rect fill="#ffb655" height="8" rx="1" width="2" x="18" y="26"/><rect fill="#ffb655" height="6" rx="1" width="2" x="22" y="31"/><rect fill="#ffb655" height="4" rx="1" transform="matrix(-1 0 0 -1 106 64)" width="2" x="52" y="30"/><rect fill="#ffb655" height="8" rx="1" transform="matrix(-1 0 0 -1 98 60)" width="2" x="48" y="26"/><rect fill="#ffb655" height="8" rx="1" transform="matrix(-1 0 0 -1 90 60)" width="2" x="44" y="26"/><rect fill="#ffb655" height="6" rx="1" transform="matrix(-1 0 0 -1 82 68)" width="2" x="40" y="31"/></g></svg>