<svg id="Layer_5" enable-background="new 0 0 64 64" height="512" viewBox="0 0 64 64" width="512" xmlns="http://www.w3.org/2000/svg"><path d="m15 34h5.68l.21 4 1.09 20.67c.18 1.64-1 3.13-2.65 3.31-.12.01-.23.02-.33.02-1.53 0-2.81-1.15-2.98-2.67l-2.02-19.33-2.02 19.33c-.17 1.52-1.45 2.67-2.98 2.67-.1 0-.21-.01-.33-.02-1.65-.18-2.83-1.67-2.65-3.31l1.09-20.67.21-4h5.68z" fill="#838f9b"/><path d="m11.1 22 1.9 12h-5.68l-.21 4h-2.11c-1.66 0-3-1.34-3-3v-9c0-4.89 3.52-8.97 8.17-9.83z" fill="#fcd770"/><path d="m16.9 22 .93-5.83c4.65.86 8.17 4.94 8.17 9.83v9c0 1.66-1.34 3-3 3h-2.11l-.21-4h-5.68z" fill="#fcd770"/><path d="m16.9 22-1.9 12h-2l-1.9-12z" fill="#ff826e"/><path d="m17.83 16.17-.93 5.83h-5.8l-.93-5.83c.59-.11 1.2-.17 1.83-.17h2 2c.63 0 1.24.06 1.83.17z" fill="#f0d0b4"/><circle cx="14" cy="9" fill="#f0d0b4" r="7"/><path d="m62 30.36c0 1.69-.67 3.31-1.86 4.5l-3.14 3.14-9-9 3.14-3.14c1.19-1.19 2.81-1.86 4.5-1.86 1.76 0 3.34.71 4.5 1.86 1.15 1.16 1.86 2.74 1.86 4.5z" fill="#aab2bd"/><path d="m36 54 1 4-11 2 2-11 4 1v4z" fill="#aab2bd"/><path d="m57 38-3 3-4.5-4.5-4.5-4.5 3-3z" fill="#fcd770"/><path d="m54 41-17 17-1-4h-4l17.5-17.5z" fill="#ff826e"/><path d="m49.5 36.5-17.5 17.5v-4l-4-1 17-17z" fill="#5cd6b3"/><path d="m30 17h8v8h-8z" fill="#48cfad"/><path d="m38 6v7h-8v-8h8z" fill="#48cfad"/><path d="m27 35v-9c0-5.093-3.484-9.376-8.19-10.623 1.933-1.461 3.19-3.772 3.19-6.377 0-4.411-3.589-8-8-8s-8 3.589-8 8c0 2.605 1.257 4.916 3.19 6.377-4.706 1.247-8.19 5.53-8.19 10.623v9c0 2.206 1.794 4 4 4h1.052l-1.028 19.559c-.243 2.19 1.341 4.172 3.54 4.418.162.016.299.023.437.023 2.041 0 3.749-1.53 3.975-3.566l1.024-9.809 1.025 9.814c.223 2.031 1.932 3.561 3.973 3.561.139 0 .276-.007.446-.024 2.19-.245 3.774-2.227 3.536-4.359l-1.031-19.617h1.051c2.206 0 4-1.794 4-4zm-13.147-2-1.589-10h3.471l-1.589 10zm2.2-12h-4.106l-.63-3.965c.226-.017.452-.035.683-.035h4c.231 0 .457.018.683.035zm-8.053-12c0-3.309 2.691-6 6-6s6 2.691 6 6-2.691 6-6 6-6-2.691-6-6zm-3 28c-1.103 0-2-.897-2-2v-9c0-4.041 2.677-7.467 6.35-8.601l2.479 15.601h-3.458l.628-11.947-1.998-.105-.844 16.052zm14.23 23.986c-.084.009-.158.014-.232.014-1.02 0-1.874-.765-1.985-1.773l-1.904-18.227h1.891v-2h-6v2h1.891l-1.903 18.22c-.12 1.087-1.077 1.881-2.209 1.768-1.096-.122-1.888-1.112-1.761-2.266l1.247-23.722h11.47l1.252 23.779c.122 1.096-.67 2.086-1.757 2.207zm1.769-40.039-1.998.105.629 11.948h-3.459l2.479-15.601c3.673 1.134 6.35 4.56 6.35 8.601v9c0 1.103-.897 2-2 2h-1.157z"/><path d="m55.636 23c-1.32 0-2.584.352-3.695 1h-8.941v2h6.586l-22.514 22.514-2.314 12.729 12.729-2.314 23.356-23.356c1.391-1.392 2.157-3.242 2.157-5.209 0-4.06-3.304-7.364-7.364-7.364zm-18.855 30h-2.367l15.086-15.086 3.086 3.086-15.044 15.044zm-6.825-4.542 15.044-15.044 3.086 3.086-15.086 15.086v-2.367zm16.458-16.458 1.586-1.586 7.586 7.586-1.586 1.586zm-17.621 18.229 2.207.552v4.219h4.219l.552 2.207-8.529 1.551zm30.636-16.072-2.429 2.429-7.586-7.586 2.429-2.429c.999-.999 2.381-1.571 3.793-1.571 2.958 0 5.364 2.406 5.364 5.364 0 1.412-.572 2.794-1.571 3.793z"/><path d="m39 6.414 3.707-3.707-1.414-1.414-2.707 2.707h-9.586v10h10zm-8 5.586v-6h5.586l-2.586 2.586-1.293-1.293-1.414 1.414 2.707 2.707 3-3v3.586z"/><path d="m39 16h-10v10h10zm-2 8h-6v-6h6z"/><path d="m53 12h2v2h-2z"/><path d="m43 12h8v2h-8z"/><path d="m43 8h12v2h-12z"/><path d="m43 4h12v2h-12z"/><path d="m43 20h12v2h-12z"/><path d="m43 16h12v2h-12z"/></svg>