<svg id="Capa_1" enable-background="new 0 0 511.755 511.755" height="512" viewBox="0 0 511.755 511.755" width="512" xmlns="http://www.w3.org/2000/svg"><g><g><path d="m451.027 7.505h-390.3c-10.96 0-19.85 8.88-19.85 19.84v23.44l34.11 57.193h358.87l37.02-57.193v-23.44c0-10.96-8.89-19.84-19.85-19.84z" fill="#5f99d7"/><path d="m121.711 27.345c0-10.96 8.89-19.84 19.85-19.84h-80.834c-10.96 0-19.85 8.88-19.85 19.84v23.44l34.11 57.193h46.724z" fill="#3c87d0"/><g id="XMLID_250_"><g><g><path d="m470.877 50.785v441.878c0 6.402-5.19 11.592-11.592 11.592h-406.816c-6.402 0-11.592-5.19-11.592-11.592v-441.878z" fill="#dff6fd"/></g></g></g><path d="m133.303 504.255c-6.402 0-11.592-5.19-11.592-11.592v-441.878h-80.834v441.878c0 6.402 5.19 11.592 11.592 11.592h406.816.001z" fill="#c8effe"/><g id="XMLID_251_"><g><circle cx="255.517" cy="231.085" fill="#fee97d" r="126.94"/></g></g><path d="m184.557 231.085c0-60.491 42.309-111.09 98.948-123.837-9.006-2.027-18.371-3.103-27.988-3.103-70.11 0-126.94 56.83-126.94 126.94 0 70.1 56.83 126.94 126.94 126.94 9.617 0 18.983-1.076 27.988-3.104-56.639-12.749-98.948-63.354-98.948-123.836z" fill="#fee45a"/><path d="m421.248 354.287h-19.238c-5.532 0-10.016-4.484-10.016-10.016v-19.238c0-5.532 4.484-10.016 10.016-10.016h19.238c5.532 0 10.016 4.484 10.016 10.016v19.238c0 5.531-4.485 10.016-10.016 10.016z" fill="#c8effe"/><g><g><path d="m329.257 307.075v27.34c-20.79 14.86-46.24 23.61-73.74 23.61-27.16 0-52.32-8.53-72.96-23.05v-27.9c0-6.32 3.37-12.17 8.84-15.33l45.78-26.47 9.44-4.4h15.78l12.24 4.4 45.78 26.47c5.47 3.16 8.84 9.01 8.84 15.33z" fill="#f37c7c"/></g><path d="m274.637 265.275-10.735-3.859 4.3 8.891-20.42 9.875v-19.307h-1.165l-9.44 4.4-45.78 26.47c-5.47 3.16-8.84 9.01-8.84 15.33v27.9c8.716 6.132 18.246 11.18 28.385 14.984v-24.073c0-6.32 3.37-12.17 8.84-15.33l14.492-8.379c5.499-3.18 11.858-4.376 18.185-3.811.971.087 1.954.131 2.948.131 15.71 0 28.9-10.964 32.342-25.64z" fill="#ee6161"/><path d="m273.633 265.27c0 10.066-8.16 18.226-18.226 18.226-10.066 0-18.226-8.16-18.226-18.226v-49.091h36.453v49.091z" fill="#ffe5c2"/><path d="m280.737 142.89h-48.247l-14.965-4.917c-2.177-.715-4.418.907-4.418 3.199v41.494l15.159 22.961h54.526c7.227-11.113 15.128-22.961 15.128-22.961v-22.593c0-9.49-7.693-17.183-17.183-17.183z" fill="#a79ba7"/><path d="m235.153 198.639-.731.076v-32.477c.731-6.812 7.316-11.58 13.715-9.477l6.399 2.103 43.335-.002c-.623-8.923-8.053-15.971-17.134-15.971h-48.247l-14.965-4.917c-2.178-.716-4.418.907-4.418 3.199v41.494l15.159 22.961h11.501z" fill="#918291"/><path d="m255.513 259.061c6.285 0 12.358-1.175 18.12-3.459v-9.472h-36.453v18.705c0 8.946 6.279 16.868 15.094 18.392 3.516.608 6.861.16 9.836-1.019-6.745-2.673-11.522-9.241-11.522-16.937v-1.424c0-2.678 2.197-4.788 4.875-4.785.017-.001.034-.001.05-.001z" fill="#fed2a4"/><path d="m213.107 182.665v26.989c0 7.724 2.076 14.96 5.684 21.198l4.464-7.106 13.925 21.361 24.415 3.944h7.23l5.663-1.474c13.891-6.964 23.432-21.325 23.432-37.923v-26.989z" fill="#ffe5c2"/><path d="m234.445 205.24v-22.574h-21.338v26.989c0 23.42 18.986 42.406 42.406 42.406 6.823 0 13.264-1.621 18.974-4.484-22.32-1.227-40.042-19.711-40.042-42.337z" fill="#fed2a4"/></g></g><g><path d="m160.887 146.147c-3.238-2.582-7.958-2.051-10.54 1.188-19.151 24.02-29.273 52.979-29.273 83.746 0 74.13 60.31 134.439 134.44 134.439s134.44-60.31 134.44-134.439-60.31-134.439-134.44-134.439c-29.442 0-57.402 9.347-80.857 27.03-3.307 2.493-3.967 7.196-1.474 10.503 2.495 3.309 7.196 3.969 10.504 1.474 20.832-15.705 45.669-24.007 71.827-24.007 65.86 0 119.44 53.58 119.44 119.439 0 34.509-14.716 65.64-38.195 87.464v-11.47c0-8.973-4.825-17.336-12.59-21.825l-2.91-1.684c-3.586-2.073-8.174-.848-10.248 2.736-2.074 3.586-.849 8.174 2.736 10.248l2.912 1.685c3.146 1.818 5.1 5.206 5.1 8.84v23.342c-5.77 3.861-11.895 7.229-18.313 10.052v-7.818c0-4.143-3.357-7.5-7.5-7.5s-7.5 3.357-7.5 7.5v13.25c-10.465 3.006-21.513 4.62-32.932 4.62-11.497 0-22.617-1.637-33.146-4.683v-13.187c0-4.143-3.358-7.5-7.5-7.5s-7.5 3.357-7.5 7.5v7.725c-6.05-2.676-11.837-5.839-17.313-9.44v-23.86c0-3.634 1.954-7.021 5.1-8.841l37.219-21.523c4.219 8.458 12.956 14.284 23.032 14.284 10.254 0 19.124-6.033 23.254-14.734l6.835 3.953c1.183.685 2.474 1.009 3.748 1.009 2.59 0 5.109-1.343 6.499-3.746 2.074-3.586.849-8.174-2.737-10.247l-11.872-6.866v-7.902c14.537-8.732 24.287-24.651 24.287-42.809v-49.582c0-13.61-11.073-24.683-24.684-24.683h-47.045l-13.824-4.542c-3.299-1.083-6.951-.516-9.766 1.521-2.814 2.037-4.494 5.327-4.494 8.802v68.483c0 18.07 9.653 33.926 24.073 42.686v8.603l-42.034 24.307c-7.766 4.491-12.591 12.854-12.591 21.826v12.202c-23.939-21.857-38.982-53.302-38.982-88.196 0-27.335 8.991-53.06 26.002-74.395 2.582-3.238 2.05-7.957-1.188-10.539zm69.263 3.868c.755.248 1.545.375 2.341.375h48.246c5.34 0 9.684 4.344 9.684 9.683v15.093h-69.813v-28.286zm-9.543 40.15h69.813v19.489c0 19.247-15.659 34.906-34.907 34.906s-34.906-15.659-34.906-34.906zm34.906 69.396c3.645 0 7.195-.403 10.62-1.149v6.858c0 5.915-4.812 10.727-10.726 10.727s-10.727-4.812-10.727-10.727v-6.907c3.491.775 7.113 1.198 10.833 1.198z"/><path d="m421.247 307.516h-19.238c-9.658 0-17.516 7.857-17.516 17.517v19.238c0 9.659 7.857 17.517 17.516 17.517h19.238c9.659 0 17.517-7.857 17.517-17.517v-19.238c0-9.66-7.858-17.517-17.517-17.517zm2.517 36.755c0 1.388-1.129 2.517-2.517 2.517h-19.238c-1.387 0-2.516-1.129-2.516-2.517v-19.238c0-1.388 1.129-2.517 2.516-2.517h19.238c1.388 0 2.517 1.129 2.517 2.517z"/><path d="m114.211 408.564c4.142 0 7.5-3.357 7.5-7.5s-3.358-7.5-7.5-7.5h-18.48c-4.142 0-7.5 3.357-7.5 7.5s3.358 7.5 7.5 7.5z"/><path d="m417.024 393.564h-18.48c-4.143 0-7.5 3.357-7.5 7.5s3.357 7.5 7.5 7.5h18.48c4.143 0 7.5-3.357 7.5-7.5s-3.358-7.5-7.5-7.5z"/><path d="m143.044 393.564c-4.142 0-7.5 3.357-7.5 7.5s3.358 7.5 7.5 7.5h225.229c4.143 0 7.5-3.357 7.5-7.5s-3.357-7.5-7.5-7.5z"/><path d="m417.024 437.538h-318.983c-4.142 0-7.5 3.357-7.5 7.5s3.358 7.5 7.5 7.5h318.982c4.143 0 7.5-3.357 7.5-7.5s-3.357-7.5-7.499-7.5z"/><path d="m451.027 0h-390.3c-15.081 0-27.35 12.269-27.35 27.35v304.119c0 4.143 3.358 7.5 7.5 7.5s7.5-3.357 7.5-7.5v-273.188h415v445.974c0 4.143 3.357 7.5 7.5 7.5s7.5-3.357 7.5-7.5v-476.905c0-15.081-12.269-27.35-27.35-27.35zm-402.649 43.281v-15.931c0-6.81 5.54-12.35 12.35-12.35h390.299c6.811 0 12.351 5.54 12.351 12.35v15.932h-415z"/><path d="m40.878 355.932c-4.142 0-7.5 3.357-7.5 7.5v140.823c0 4.143 3.358 7.5 7.5 7.5s7.5-3.357 7.5-7.5v-140.823c0-4.143-3.358-7.5-7.5-7.5z"/></g></g></svg>