<svg id="icons" enable-background="new 0 0 64 64" height="512" viewBox="0 0 64 64" width="512" xmlns="http://www.w3.org/2000/svg"><path d="m1 7.495v52.01l.999 1h60l1.001-1v-52.01z" fill="#e6e9ed"/><path d="m12 31.495c0-.55.45-1 1-1h38c.55 0 1 .45 1 1v4c0 .55-.45 1-1 1h-38c-.55 0-1-.45-1-1z" fill="#fff"/><path d="m51 39.495c.55 0 1 .45 1 1v4c0 .55-.45 1-1 1h-38c-.55 0-1-.45-1-1v-4c0-.55.45-1 1-1z" fill="#fff"/><path d="m24 49.495h16c1.66 0 3 1.34 3 3s-1.34 3-3 3h-16c-1.66 0-3-1.34-3-3s1.34-3 3-3z" fill="#5d9cec"/><path d="m63 7.495h-62v-2c0-1.1.89-2 2-2h58c1.11 0 2 .9 2 2z" fill="#ccd1d9"/><path d="m30 19.495c0 1.1.9 2 2 2-2.13 0-3.86 1.66-3.99 3.75-1.819-1.26-3.01-3.36-3.01-5.75 0-3.87 3.13-7 7-7s7 3.13 7 7c0 2.39-1.19 4.49-3.01 5.75-.13-2.09-1.87-3.75-3.99-3.75 1.1 0 2-.9 2-2s-.9-2-2-2-2 .901-2 2z" fill="#656d78"/><path d="m32 21.495c2.12 0 3.86 1.66 3.99 3.75-1.13.79-2.5 1.25-3.99 1.25s-2.86-.46-3.99-1.25c.13-2.09 1.86-3.75 3.99-3.75z" fill="#5d9cec"/><g fill="#e6e9ed"><path d="m4.03 6.497c-.553 0-1.005-.448-1.005-1s.442-1 .994-1h.011c.552 0 1 .448 1 1s-.448 1-1 1z"/><path d="m7.029 6.497c-.553 0-1.005-.448-1.005-1s.442-1 .994-1h.011c.552 0 1 .448 1 1s-.448 1-1 1z"/><path d="m10.032 6.497c-.553 0-1.005-.448-1.005-1s.442-1 .994-1h.011c.552 0 1 .448 1 1s-.448 1-1 1z"/><path d="m42 34.496h-20c-.553 0-1-.447-1-1 0-.552.447-1 1-1h20c.553 0 1 .448 1 1 0 .553-.447 1-1 1z"/><path d="m23.03 43.496c-.553 0-1.005-.447-1.005-1s.442-1 .994-1h.011c.552 0 1 .447 1 1s-.448 1-1 1z"/><path d="m26.03 43.496c-.553 0-1.005-.447-1.005-1s.442-1 .994-1h.011c.552 0 1 .447 1 1s-.448 1-1 1z"/><path d="m29.03 43.496c-.553 0-1.005-.447-1.005-1s.442-1 .994-1h.011c.552 0 1 .447 1 1s-.448 1-1 1z"/><path d="m32.03 43.496c-.553 0-1.005-.447-1.005-1s.442-1 .994-1h.011c.552 0 1 .447 1 1s-.448 1-1 1z"/><path d="m35.03 43.496c-.553 0-1.005-.447-1.005-1s.442-1 .994-1h.011c.552 0 1 .447 1 1s-.448 1-1 1z"/><path d="m38.03 43.496c-.553 0-1.005-.447-1.005-1s.442-1 .994-1h.011c.552 0 1 .447 1 1s-.448 1-1 1z"/><path d="m41.03 43.496c-.553 0-1.005-.447-1.005-1s.442-1 .994-1h.011c.552 0 1 .447 1 1s-.448 1-1 1z"/></g><path d="m38 53.497h-12c-.553 0-1-.447-1-1s.447-1 1-1h12c.553 0 1 .447 1 1s-.447 1-1 1z" fill="#4a89dc"/><path d="m34.5 19.995c0 1.375-1.125 2.5-2.5 2.5s-2.5-1.125-2.5-2.5 1.125-2.5 2.5-2.5 2.5 1.126 2.5 2.5z" fill="#eac6bb"/><circle cx="2" cy="59.505" fill="#e6e9ed" r="1"/><circle cx="62" cy="59.505" fill="#e6e9ed" r="1"/></svg>